<svg xmlns="http://www.w3.org/2000/svg" width="21" height="21" viewBox="0 0 21 21"><g><g><path d="M7.875 13.114a1.993 1.993 0 0 1 0-2.823 2.003 2.003 0 0 1 2.828 0 1.993 1.993 0 0 1-.03 2.79 2.003 2.003 0 0 1-2.797.033zm-5.284 6.032c3.722-3.33 7.995-4.327 12.643-5.52l.446-4.017-4.297-4.297-4.018.446c-1.192 4.648-2.189 8.92-5.52 12.642L.45 17.006c2.828-3.3 3.89-6.952 5.303-13.08l6.364-.706 5.657 5.656-.707 6.363c-6.128 1.414-9.782 2.475-13.081 5.303zm18.358-12.77a.499.499 0 0 1-.278.848l-1.476.23-5.663-5.652.212-1.483a.5.5 0 0 1 .85-.283z"/></g></g></svg>