<svg xmlns="http://www.w3.org/2000/svg" width="30" height="30" viewBox="0 0 30 30"><g><g><path fill="#f7e36d" d="M30.108 22.422v5.934c0 .882-.68 1.614-1.56 1.675-.734.05-1.333.077-1.796.077C11.922 30.108-.1 18.088-.1 3.257c0-.464.025-1.063.077-1.796A1.678 1.678 0 0 1 1.652-.1h5.934a.84.84 0 0 1 .836.755c.039.386.074.693.108.927a23.33 23.33 0 0 0 2.027 6.714.765.765 0 0 1-.247.952L6.69 11.836a21.896 21.896 0 0 0 11.485 11.486l2.585-3.615a.775.775 0 0 1 .962-.25 23.33 23.33 0 0 0 6.713 2.022c.233.034.54.07.923.107a.84.84 0 0 1 .753.836z"/></g></g></svg>